<svg width="911" height="1051" viewBox="0 0 911 1051" fill="none" xmlns="http://www.w3.org/2000/svg">
<g opacity="0.5">
<path d="M241.32 798.611C273.529 829.159 314.915 851.074 358.555 859.536C395.855 866.624 434.198 864.312 470.14 853.182C480.503 849.785 490.507 844.983 500.538 838.527C545.79 810.494 591.253 761.596 650.159 754.778C722.957 746.657 845.581 773.565 939.439 698.975C966.638 677.652 985.231 645.501 994.314 611.289C1001.63 583.666 1000.46 553.871 994.553 526.036C985.107 480.838 964.911 439.285 938.046 400.933C922.875 379.058 905.142 358.286 887.133 338.782C849.985 298.866 808.318 262.949 762.876 232.19C693.887 186.037 613.628 152.046 530.792 151.353C512.213 151.31 493.358 152.534 475.222 156.57C452.62 161.298 431.369 168.973 410.341 178.689C381.623 191.717 354.753 208.464 329.758 227.278C242.402 293.319 177.195 390.383 155.574 499.217C132.057 622.908 173.012 734.018 241.32 798.611Z" fill="url(#paint0_linear_8_510)"/>
<path d="M241.32 798.611C273.529 829.159 314.915 851.074 358.555 859.536C395.855 866.624 434.198 864.312 470.14 853.182C480.503 849.785 490.507 844.983 500.538 838.527C545.79 810.494 591.253 761.596 650.159 754.778C722.957 746.657 845.581 773.565 939.439 698.975C966.638 677.652 985.231 645.501 994.314 611.289C1001.63 583.666 1000.46 553.871 994.553 526.036C985.107 480.838 964.911 439.285 938.046 400.933C922.875 379.058 905.142 358.286 887.133 338.782C849.985 298.866 808.318 262.949 762.876 232.19C693.887 186.037 613.628 152.046 530.792 151.353C512.213 151.31 493.358 152.534 475.222 156.57C452.62 161.298 431.369 168.973 410.341 178.689C381.623 191.717 354.753 208.464 329.758 227.278C242.402 293.319 177.195 390.383 155.574 499.217C132.057 622.908 173.012 734.018 241.32 798.611Z" fill="url(#paint1_linear_8_510)"/>
</g>
<defs>
<linearGradient id="paint0_linear_8_510" x1="190.718" y1="447.616" x2="982.936" y2="618.73" gradientUnits="userSpaceOnUse">
<stop offset="0.00666585" stop-color="#FF9C37"/>
<stop offset="0.9967" stop-color="#FF7300"/>
</linearGradient>
<linearGradient id="paint1_linear_8_510" x1="661.986" y1="-79.3042" x2="480.825" y2="1162.62" gradientUnits="userSpaceOnUse">
<stop stop-color="#FFDF00"/>
<stop offset="1" stop-color="#FFB800"/>
</linearGradient>
</defs>
</svg>
