<svg width="80" height="80" viewBox="0 0 80 80" fill="none" xmlns="http://www.w3.org/2000/svg">
<path d="M31.7655 48.8414C31.0483 48.6069 29.9724 48.0965 29.5311 47.3103M31.7655 48.8414C32.4552 47.531 34.3724 44.0276 35.6138 42.4552C37.1862 40.4828 38.0552 37.9724 38.0552 35.3517V32.8552C38.0552 28.2897 37.2276 23.5034 35.5449 18.1793M31.7655 48.8414L31.7966 48.7463C31.7705 48.7378 31.7438 48.7288 31.7167 48.7196M31.7655 48.8414L31.677 48.7948C31.6899 48.7705 31.7031 48.7454 31.7167 48.7196M29.5311 47.3103L35.5449 18.1793M29.5311 47.3103C29.0483 46.4552 29.0207 45.4207 29.4621 44.4828M29.5311 47.3103L29.4621 44.4828M35.5449 18.1793L35.4495 18.2094C35.4495 18.2095 35.4495 18.2095 35.4495 18.2096M35.5449 18.1793L35.4496 18.2097C35.4496 18.2096 35.4496 18.2096 35.4495 18.2096M35.4495 18.2096C37.1299 23.5262 37.9552 28.3021 37.9552 32.8552V35.3517C37.9552 37.9505 37.0935 40.4387 35.5356 42.3928L35.5353 42.3932C34.3104 43.9448 32.437 47.3564 31.7167 48.7196M35.4495 18.2096C35.143 17.2481 34.9897 16.2586 34.9897 15.269C34.9897 13.1482 35.7707 11.189 36.7139 9.59393C37.6574 7.99832 38.7668 6.76085 39.432 6.08174L39.4328 6.08101C39.5952 5.91853 39.8036 5.87387 39.9848 5.84599L39.9931 5.84471L40.0016 5.84484C40.1067 5.84646 40.2104 5.86987 40.3061 5.91361C40.4008 5.9569 40.4856 6.01916 40.5552 6.09654C41.2282 6.76283 42.3433 7.98924 43.2911 9.58161C44.2397 11.1753 45.0242 13.1414 45.0242 15.2828C45.0242 16.2314 44.8707 17.2209 44.5505 18.2233C42.8702 23.5397 42.0586 28.3294 42.0586 32.869V35.3655C42.0586 37.9781 42.9204 40.4662 44.4643 42.4065C45.7183 43.974 47.6227 47.4737 48.3281 48.7956C48.7527 48.6936 49.3515 48.4838 49.8493 48.0633C50.3725 47.6211 50.7889 46.9425 50.769 45.8921C50.7288 44.4089 49.6613 43.2246 48.2372 43.0649L48.235 43.0647C47.0594 42.9069 46.2663 42.0106 46.3833 40.9135L46.3836 40.9115L48.0799 27.548C48.0799 27.5477 48.08 27.5474 48.08 27.5471C48.3928 24.629 49.4483 21.8397 51.146 19.4457M31.7167 48.7196C31.3784 48.6034 30.9728 48.4292 30.5973 48.1976C30.1907 47.9469 29.8272 47.6337 29.6183 47.2614L29.6181 47.2612C29.1522 46.4358 29.1242 45.4356 29.5526 44.5253L29.5527 44.525C29.9207 43.7364 30.7271 43.1989 31.8908 43.023L31.8919 43.0228C32.9656 42.8487 33.7188 41.8624 33.6029 40.7619L33.6027 40.7599L31.9339 27.5201L31.8345 27.531M31.8345 27.531L31.9337 27.5185L31.9338 27.5193C31.6146 24.6063 30.5603 21.818 28.868 19.4182L28.8678 19.418C27.1651 17.0187 24.8776 15.0942 22.2224 13.827L22.2223 13.827C22.0618 13.7505 21.7643 13.676 21.4188 13.6707C21.0718 13.6653 20.667 13.7295 20.2959 13.9404M31.8345 27.531C31.5173 24.6345 30.469 21.8621 28.7862 19.4759C27.0934 17.0905 24.8192 15.1771 22.1793 13.9172C21.8897 13.7793 21.0483 13.6276 20.3449 14.0276M31.8345 27.531L33.5035 40.7724M20.2959 13.9404C19.8963 14.1626 19.4078 14.6456 19.2938 15.6578L19.2931 15.6577V15.669V58.9655C19.2931 60.0966 20.2069 61.0103 21.338 61.0103H30.7815M20.2959 13.9404C20.296 13.9403 20.2961 13.9402 20.2963 13.9402L20.3449 14.0276M20.2959 13.9404C20.2957 13.9405 20.2956 13.9406 20.2954 13.9407L20.3449 14.0276M30.7815 61.0103L30.8838 61.34L30.8839 61.3403C33.0129 68.1142 38.3942 72.883 38.6523 73.0967M30.7815 61.0103L30.7597 60.94L30.8552 60.9103M30.7815 61.0103H30.8552V60.9103M38.6523 73.0967C39.0281 73.4286 39.506 73.6172 40 73.6172C40.4934 73.6172 40.9858 73.429 41.3488 73.1096L41.3489 73.1095C41.5855 72.9007 46.997 68.0854 49.1299 61.3405L49.13 61.34L49.2323 61.0103M38.6523 73.0967C38.6519 73.0964 38.6514 73.096 38.651 73.0956L38.7173 73.0207M38.6523 73.0967C38.6528 73.0971 38.6533 73.0975 38.6537 73.0979L38.7173 73.0207M49.2323 61.0103H58.6621C59.7932 61.0103 60.7069 60.0966 60.7069 58.9655V15.6828C60.7069 14.9708 60.4503 14.3571 59.9629 14.0023M49.2323 61.0103H49.1586V60.9103L49.2541 60.94L49.2323 61.0103ZM59.9629 14.0023C59.9627 14.0022 59.9625 14.002 59.9623 14.0019L59.9035 14.0828L59.9635 14.0028C59.9633 14.0026 59.9631 14.0025 59.9629 14.0023ZM59.9629 14.0023C59.4315 13.6041 58.7327 13.5545 57.8887 13.8076C54.7633 14.7286 52.5394 17.4728 51.146 19.4457M51.146 19.4457C51.146 19.4457 51.146 19.4456 51.146 19.4456L51.2276 19.5034L51.1459 19.4458C51.1459 19.4457 51.146 19.4457 51.146 19.4457ZM38.7173 73.0207C38.4828 72.8276 33.1035 68.069 30.9793 61.3103M38.7173 73.0207C39.0759 73.3379 39.5311 73.5172 40 73.5172C40.469 73.5172 40.938 73.3379 41.2828 73.0345C41.5173 72.8276 46.9104 68.0276 49.0345 61.3103H30.9793M30.9793 61.3103L30.8552 60.9103M30.9793 61.3103L33.5035 40.7724M29.4621 44.4828C29.8483 43.6552 30.6897 43.1034 31.8759 42.9241C32.8966 42.7586 33.6138 41.8207 33.5035 40.7724M29.4621 44.4828L33.5035 40.7724M30.8552 60.9103H21.338C20.2621 60.9103 19.3931 60.0414 19.3931 58.9655V15.669C19.5035 14.6897 19.9724 14.2345 20.3449 14.0276M47.8908 59.9978L47.8913 59.996C48.0012 59.6666 48.3007 59.4448 48.6483 59.4448H58.6621C58.9103 59.4448 59.1276 59.2275 59.1276 58.9793V15.669C59.1276 15.5611 59.1117 15.4645 59.0875 15.3891C59.0624 15.3105 59.032 15.266 59.0119 15.2492C58.9986 15.2382 58.943 15.2138 58.819 15.2138C58.7014 15.2138 58.5386 15.2359 58.3314 15.296C55.6924 16.0715 53.71 18.5395 52.4403 20.3336L52.44 20.3339C50.9054 22.4851 49.9459 25.0343 49.6581 27.7073L49.6579 27.7091L49.6578 27.7091L47.9616 41.0724C47.9615 41.0727 47.9615 41.0731 47.9614 41.0735C47.9465 41.2216 48.0209 41.3129 48.1282 41.3758C48.2402 41.4415 48.3759 41.4667 48.4376 41.4729L48.4384 41.473C50.6557 41.7131 52.3057 43.5494 52.3621 45.832L52.3621 45.8324C52.3973 47.4875 51.6875 48.6059 50.7757 49.3251C49.868 50.0411 48.7623 50.3603 47.9954 50.4306L47.991 50.431L47.991 50.4309C47.6669 50.4464 47.365 50.2914 47.2209 50.0033L47.2203 50.0021L47.2185 49.9986L47.2119 49.986L47.1884 49.941C47.1682 49.9025 47.1392 49.8473 47.1022 49.7774C47.0282 49.6375 46.9223 49.4387 46.7915 49.1959C46.5299 48.7104 46.1686 48.0494 45.763 47.3338C44.9505 45.9003 43.9646 44.2555 43.2463 43.3593C41.4657 41.1474 40.4931 38.2974 40.4931 35.3379V32.8414C40.4931 28.1259 41.3229 23.1777 43.0495 17.7215L43.0497 17.721C43.3227 16.8747 43.4586 16.0437 43.4586 15.2552C43.4586 13.6296 42.8905 12.0776 42.1642 10.7603C41.4666 9.49521 40.6262 8.45205 40.0139 7.77608C38.6617 9.27199 36.5828 12.1115 36.5828 15.2552C36.5828 16.0717 36.7189 16.9029 36.9781 17.7215L36.9781 17.7215C38.7047 23.1775 39.5483 28.1257 39.5483 32.8414V35.3379C39.5483 38.2841 38.5617 41.1339 36.7816 43.359C36.0699 44.2555 35.0875 45.9002 34.2767 47.3337C33.872 48.0493 33.5111 48.7103 33.2497 49.1959C33.119 49.4387 33.0132 49.6375 32.9392 49.7774C32.9022 49.8473 32.8732 49.9025 32.853 49.941L32.8295 49.986L32.823 49.9986L32.8211 50.0021L32.8205 50.0033L32.8187 50.0069L32.8187 50.0068C32.646 50.3207 32.3005 50.4777 31.9565 50.416C31.8717 50.4034 31.2082 50.2539 30.4403 49.894C29.6603 49.5283 28.7556 48.9378 28.2441 48.0355L28.2438 48.0351C27.5243 46.7513 27.4685 45.2276 28.1164 43.8472C28.7129 42.5552 29.9737 41.7118 31.6402 41.4597L31.6417 41.4595C31.8886 41.4259 32.0606 41.2012 32.0385 40.9486L30.3698 27.7091L30.3696 27.7073C30.0822 25.0576 29.1248 22.5248 27.5875 20.3476C26.0281 18.1728 23.9505 16.4079 21.5732 15.2704C21.5714 15.2702 21.5698 15.27 21.5684 15.2699L21.5661 15.2696L21.5628 15.2692C21.5521 15.268 21.5393 15.2665 21.5246 15.265C21.4919 15.2618 21.4507 15.2586 21.4069 15.2586C21.2923 15.2586 21.1491 15.2848 21.0612 15.3392C20.9743 15.3978 20.8991 15.5258 20.8724 15.7708V58.9793C20.8724 59.2275 21.0897 59.4448 21.338 59.4448H31.3655C31.534 59.4448 31.6981 59.4982 31.8342 59.5975C31.9703 59.6967 32.0714 59.8366 32.1228 59.997L32.1231 59.9978L32.3989 60.8805C34.3901 67.2524 39.475 71.7336 39.6935 71.9247C39.8775 72.0858 40.1646 72.0695 40.3046 71.9403L40.3069 71.9382C40.511 71.7614 45.6236 67.2113 47.6149 60.8805L47.8908 59.9978ZM47.8908 59.9978L47.615 60.8803L47.8908 59.9978ZM44.9242 15.2828C44.9242 11.0483 41.8207 7.48965 40.4828 6.16551L48.2483 42.9655C49.7242 43.131 50.8276 44.3586 50.869 45.8897C50.9104 48.0552 49.1448 48.7172 48.2759 48.9103C47.6 47.6414 45.6552 44.0552 44.3862 42.469C42.8276 40.5103 41.9586 38 41.9586 35.3655V32.869C41.9586 28.3172 42.7724 23.5172 44.4552 18.1931C44.7724 17.2 44.9242 16.2207 44.9242 15.2828Z" fill="#50AB09" stroke="#50AB09" stroke-width="0.2"/>
<mask id="path-2-outside-1_25_2120" maskUnits="userSpaceOnUse" x="21.5656" y="17.4406" width="37" height="53" fill="black">
<rect fill="white" x="21.5656" y="17.4406" width="37" height="53"/>
<path d="M45.1311 60.2345L34.938 60.1517C34.7173 60.1517 34.5104 60.262 34.3724 60.4414C34.2483 60.6207 34.2069 60.8551 34.2897 61.0758C35.6276 64.7724 38.1242 67.8069 39.5035 69.2827C39.5688 69.3527 39.6478 69.4086 39.7356 69.4467C39.8234 69.4849 39.9181 69.5046 40.0138 69.5046C40.1096 69.5046 40.2043 69.4849 40.2921 69.4467C40.3799 69.4086 40.4589 69.3527 40.5242 69.2827C41.8897 67.8069 44.3724 64.8 45.7793 61.1724C45.8198 61.0689 45.8347 60.9572 45.8227 60.8467C45.8107 60.7362 45.7721 60.6303 45.7104 60.5379C45.6404 60.4496 45.5527 60.377 45.4529 60.3247C45.3531 60.2725 45.2435 60.2417 45.1311 60.2345ZM40 67.7931C38.8 66.4138 37.0897 64.1931 35.9587 61.5448L44.0966 61.6138C42.9104 64.2207 41.2 66.4276 40 67.7931ZM56.7862 47.131L54.5242 47.0896C54.2483 47.0896 53.9311 47.2827 53.8483 47.5862C53.2138 49.7517 51.4897 51.3517 49.338 51.7931C49.1587 51.8345 48.9931 51.931 48.8966 52.0965C48.8 52.2482 48.7587 52.4414 48.8 52.6207C49.0345 53.6965 49.1173 56.4827 49.0897 56.8965C49.0621 57.0758 49.0897 57.2551 49.1862 57.4069C49.3104 57.6 49.5311 57.7103 49.7656 57.7103H56.7173C57.0897 57.7103 57.4069 57.4069 57.4069 57.0207L57.4621 47.8207C57.4621 47.4482 57.1587 47.1448 56.7862 47.131ZM56.0276 56.331H50.469C50.469 55.3655 50.3587 53.9034 50.2483 52.9793C52.4414 52.331 54.1931 50.662 55.0069 48.4689L56.0828 48.4827L56.0276 56.331ZM45.5587 52.0276H45.1449C43.1724 52.0276 41.5035 53.4896 41.2828 55.4758V55.7103C41.2828 56.0276 41.2828 56.6207 41.269 56.8414C41.2413 56.9433 41.2374 57.0502 41.2576 57.1539C41.2778 57.2575 41.3216 57.3552 41.3857 57.4392C41.4497 57.5232 41.5322 57.5913 41.6267 57.6384C41.7213 57.6854 41.8254 57.71 41.9311 57.7103H45.9449C46.3035 57.7103 46.6069 57.4345 46.6345 57.0758C46.6621 56.7448 46.6759 56.4 46.6759 56.0689C46.6759 55.0069 46.538 53.8345 46.2483 52.5655C46.2065 52.4136 46.1168 52.2792 45.9926 52.1823C45.8684 52.0854 45.7162 52.0311 45.5587 52.0276ZM45.269 56.331H42.6483V55.5724C42.7862 54.4 43.7931 53.4758 44.9931 53.4069C45.1862 54.3724 45.2828 55.2551 45.2828 56.0689C45.2828 56.1655 45.2828 56.2482 45.269 56.331ZM38.7311 57.0345V55.4896C38.5104 53.531 36.8414 52.0551 34.9518 52.0551H34.938L34.5793 52.0138C34.4146 51.9954 34.2488 52.0368 34.1121 52.1305C33.9753 52.2242 33.8768 52.3639 33.8345 52.5241C33.5129 53.688 33.3459 54.8891 33.338 56.0965V56.3586C33.338 56.5793 33.338 56.7862 33.3242 56.9793C33.3104 57.1724 33.3656 57.3655 33.4897 57.5172C33.6138 57.6689 33.8069 57.7517 34 57.7517H38.0138C38.4138 57.7103 38.7173 57.4069 38.7311 57.0345ZM37.3518 56.331H34.7311V56.0689C34.7311 55.2138 34.8414 54.331 35.0345 53.4069C36.2345 53.4896 37.2138 54.4138 37.3518 55.5172V56.331ZM30.7449 51.862C28.538 51.3655 26.8 49.7379 26.2345 47.6414C26.1932 47.4993 26.1085 47.3737 25.9923 47.2822C25.876 47.1907 25.734 47.1378 25.5862 47.131L23.3242 47.0758C23.1311 47.0896 22.9655 47.1448 22.8276 47.2689C22.6897 47.3931 22.6207 47.5724 22.6207 47.7655L22.5656 57.0345C22.5656 57.2138 22.6345 57.3931 22.7724 57.531C22.9104 57.6689 23.0759 57.7379 23.2552 57.7379H30.2069C30.5793 57.7379 30.8828 57.4345 30.8966 57.062C30.9242 55.9448 31.0345 53.6138 31.269 52.731C31.3242 52.5517 31.2966 52.3586 31.2 52.1931C31.0964 52.0285 30.9334 51.9099 30.7449 51.862ZM29.5173 56.331H23.9311L23.9862 48.4689L25.0483 48.4965C25.8069 50.6483 27.5587 52.3172 29.7793 53.0345C29.6276 54.0551 29.5587 55.4896 29.5173 56.331ZM35.8207 49.5862C37.2276 49.7931 38.5242 50.4689 39.5035 51.4896C39.6276 51.6276 39.8069 51.6965 40 51.6965C40.1931 51.6965 40.3724 51.6138 40.4966 51.4896C41.4759 50.4689 42.8 49.8069 44.1104 49.6689C44.3449 49.6414 44.538 49.5172 44.6483 49.3103C44.7587 49.1034 44.7587 48.8689 44.6483 48.662C43.3793 46.2207 41.7931 44.2758 40.5656 42.8414C40.5029 42.7673 40.4247 42.7078 40.3365 42.6673C40.2483 42.6268 40.1523 42.6062 40.0552 42.6069C39.8483 42.6345 39.669 42.6896 39.5311 42.8276C38.5931 43.8345 36.7862 45.931 35.3104 48.5655C35.2 48.7586 35.2 49.0069 35.2966 49.2C35.3931 49.3931 35.6 49.5586 35.8207 49.5862ZM40.0276 44.3448C40.9656 45.462 42.0276 46.8551 42.9656 48.4827C41.8897 48.7586 40.869 49.2965 40 50.0689C39.1288 49.3131 38.1024 48.7576 36.9931 48.4414C38.0552 46.7172 39.2 45.2827 40.0276 44.3448ZM57.1035 18.5517C56.9854 18.4951 56.8534 18.4741 56.7236 18.4912C56.5938 18.5084 56.4718 18.5629 56.3724 18.6482C55.4207 19.4345 54.5656 20.3448 53.8483 21.3517C52.4966 23.2689 51.6414 25.5172 51.3793 27.8758L49.8345 39.4482C49.7931 39.7517 49.9724 40.0551 50.2621 40.1793C51.9724 40.8827 53.3242 42.3862 53.7793 44.0965C53.8621 44.4 54.138 44.6069 54.4414 44.6069H56.7035C57.0897 44.6069 57.3931 44.3034 57.3931 43.9172L57.4897 19.1724C57.4928 19.0425 57.4579 18.9146 57.3893 18.8043C57.3207 18.6941 57.2214 18.6062 57.1035 18.5517ZM56.0276 43.2276H54.9518C54.3311 41.462 52.9931 39.9724 51.269 39.1172L52.7449 28.0414C52.9793 25.9034 53.7518 23.8758 54.9655 22.1517C55.3104 21.6689 55.6966 21.2 56.1104 20.7724L56.0276 43.2276ZM23.2414 44.6069H25.5173C25.8207 44.6069 26.0966 44.4 26.1793 44.1103C26.7035 42.3586 28.0414 40.8689 29.6966 40.2345C29.9862 40.1241 30.1793 39.8207 30.138 39.5034L28.6345 27.8758C28.3724 25.5172 27.5173 23.2551 26.1655 21.3379C25.5449 20.4689 24.8 19.6138 23.7931 18.6345C23.6968 18.54 23.5744 18.4765 23.4418 18.4519C23.3091 18.4273 23.1721 18.4429 23.0483 18.4965C22.7862 18.6069 22.6207 18.8551 22.6207 19.131L22.5656 43.9172C22.5656 44.0965 22.6345 44.2758 22.7724 44.4C22.8828 44.5379 23.0483 44.6069 23.2414 44.6069ZM23.9862 20.8414C24.3862 21.2965 24.7311 21.7241 25.0345 22.1517C26.268 23.8969 27.0326 25.9296 27.2552 28.0551L28.6897 39.1724C26.9916 40.0032 25.678 41.4551 25.0207 43.2276H23.9311L23.9862 20.8414Z"/>
</mask>
<path d="M45.1311 60.2345L34.938 60.1517C34.7173 60.1517 34.5104 60.262 34.3724 60.4414C34.2483 60.6207 34.2069 60.8551 34.2897 61.0758C35.6276 64.7724 38.1242 67.8069 39.5035 69.2827C39.5688 69.3527 39.6478 69.4086 39.7356 69.4467C39.8234 69.4849 39.9181 69.5046 40.0138 69.5046C40.1096 69.5046 40.2043 69.4849 40.2921 69.4467C40.3799 69.4086 40.4589 69.3527 40.5242 69.2827C41.8897 67.8069 44.3724 64.8 45.7793 61.1724C45.8198 61.0689 45.8347 60.9572 45.8227 60.8467C45.8107 60.7362 45.7721 60.6303 45.7104 60.5379C45.6404 60.4496 45.5527 60.377 45.4529 60.3247C45.3531 60.2725 45.2435 60.2417 45.1311 60.2345ZM40 67.7931C38.8 66.4138 37.0897 64.1931 35.9587 61.5448L44.0966 61.6138C42.9104 64.2207 41.2 66.4276 40 67.7931ZM56.7862 47.131L54.5242 47.0896C54.2483 47.0896 53.9311 47.2827 53.8483 47.5862C53.2138 49.7517 51.4897 51.3517 49.338 51.7931C49.1587 51.8345 48.9931 51.931 48.8966 52.0965C48.8 52.2482 48.7587 52.4414 48.8 52.6207C49.0345 53.6965 49.1173 56.4827 49.0897 56.8965C49.0621 57.0758 49.0897 57.2551 49.1862 57.4069C49.3104 57.6 49.5311 57.7103 49.7656 57.7103H56.7173C57.0897 57.7103 57.4069 57.4069 57.4069 57.0207L57.4621 47.8207C57.4621 47.4482 57.1587 47.1448 56.7862 47.131ZM56.0276 56.331H50.469C50.469 55.3655 50.3587 53.9034 50.2483 52.9793C52.4414 52.331 54.1931 50.662 55.0069 48.4689L56.0828 48.4827L56.0276 56.331ZM45.5587 52.0276H45.1449C43.1724 52.0276 41.5035 53.4896 41.2828 55.4758V55.7103C41.2828 56.0276 41.2828 56.6207 41.269 56.8414C41.2413 56.9433 41.2374 57.0502 41.2576 57.1539C41.2778 57.2575 41.3216 57.3552 41.3857 57.4392C41.4497 57.5232 41.5322 57.5913 41.6267 57.6384C41.7213 57.6854 41.8254 57.71 41.9311 57.7103H45.9449C46.3035 57.7103 46.6069 57.4345 46.6345 57.0758C46.6621 56.7448 46.6759 56.4 46.6759 56.0689C46.6759 55.0069 46.538 53.8345 46.2483 52.5655C46.2065 52.4136 46.1168 52.2792 45.9926 52.1823C45.8684 52.0854 45.7162 52.0311 45.5587 52.0276ZM45.269 56.331H42.6483V55.5724C42.7862 54.4 43.7931 53.4758 44.9931 53.4069C45.1862 54.3724 45.2828 55.2551 45.2828 56.0689C45.2828 56.1655 45.2828 56.2482 45.269 56.331ZM38.7311 57.0345V55.4896C38.5104 53.531 36.8414 52.0551 34.9518 52.0551H34.938L34.5793 52.0138C34.4146 51.9954 34.2488 52.0368 34.1121 52.1305C33.9753 52.2242 33.8768 52.3639 33.8345 52.5241C33.5129 53.688 33.3459 54.8891 33.338 56.0965V56.3586C33.338 56.5793 33.338 56.7862 33.3242 56.9793C33.3104 57.1724 33.3656 57.3655 33.4897 57.5172C33.6138 57.6689 33.8069 57.7517 34 57.7517H38.0138C38.4138 57.7103 38.7173 57.4069 38.7311 57.0345ZM37.3518 56.331H34.7311V56.0689C34.7311 55.2138 34.8414 54.331 35.0345 53.4069C36.2345 53.4896 37.2138 54.4138 37.3518 55.5172V56.331ZM30.7449 51.862C28.538 51.3655 26.8 49.7379 26.2345 47.6414C26.1932 47.4993 26.1085 47.3737 25.9923 47.2822C25.876 47.1907 25.734 47.1378 25.5862 47.131L23.3242 47.0758C23.1311 47.0896 22.9655 47.1448 22.8276 47.2689C22.6897 47.3931 22.6207 47.5724 22.6207 47.7655L22.5656 57.0345C22.5656 57.2138 22.6345 57.3931 22.7724 57.531C22.9104 57.6689 23.0759 57.7379 23.2552 57.7379H30.2069C30.5793 57.7379 30.8828 57.4345 30.8966 57.062C30.9242 55.9448 31.0345 53.6138 31.269 52.731C31.3242 52.5517 31.2966 52.3586 31.2 52.1931C31.0964 52.0285 30.9334 51.9099 30.7449 51.862ZM29.5173 56.331H23.9311L23.9862 48.4689L25.0483 48.4965C25.8069 50.6483 27.5587 52.3172 29.7793 53.0345C29.6276 54.0551 29.5587 55.4896 29.5173 56.331ZM35.8207 49.5862C37.2276 49.7931 38.5242 50.4689 39.5035 51.4896C39.6276 51.6276 39.8069 51.6965 40 51.6965C40.1931 51.6965 40.3724 51.6138 40.4966 51.4896C41.4759 50.4689 42.8 49.8069 44.1104 49.6689C44.3449 49.6414 44.538 49.5172 44.6483 49.3103C44.7587 49.1034 44.7587 48.8689 44.6483 48.662C43.3793 46.2207 41.7931 44.2758 40.5656 42.8414C40.5029 42.7673 40.4247 42.7078 40.3365 42.6673C40.2483 42.6268 40.1523 42.6062 40.0552 42.6069C39.8483 42.6345 39.669 42.6896 39.5311 42.8276C38.5931 43.8345 36.7862 45.931 35.3104 48.5655C35.2 48.7586 35.2 49.0069 35.2966 49.2C35.3931 49.3931 35.6 49.5586 35.8207 49.5862ZM40.0276 44.3448C40.9656 45.462 42.0276 46.8551 42.9656 48.4827C41.8897 48.7586 40.869 49.2965 40 50.0689C39.1288 49.3131 38.1024 48.7576 36.9931 48.4414C38.0552 46.7172 39.2 45.2827 40.0276 44.3448ZM57.1035 18.5517C56.9854 18.4951 56.8534 18.4741 56.7236 18.4912C56.5938 18.5084 56.4718 18.5629 56.3724 18.6482C55.4207 19.4345 54.5656 20.3448 53.8483 21.3517C52.4966 23.2689 51.6414 25.5172 51.3793 27.8758L49.8345 39.4482C49.7931 39.7517 49.9724 40.0551 50.2621 40.1793C51.9724 40.8827 53.3242 42.3862 53.7793 44.0965C53.8621 44.4 54.138 44.6069 54.4414 44.6069H56.7035C57.0897 44.6069 57.3931 44.3034 57.3931 43.9172L57.4897 19.1724C57.4928 19.0425 57.4579 18.9146 57.3893 18.8043C57.3207 18.6941 57.2214 18.6062 57.1035 18.5517ZM56.0276 43.2276H54.9518C54.3311 41.462 52.9931 39.9724 51.269 39.1172L52.7449 28.0414C52.9793 25.9034 53.7518 23.8758 54.9655 22.1517C55.3104 21.6689 55.6966 21.2 56.1104 20.7724L56.0276 43.2276ZM23.2414 44.6069H25.5173C25.8207 44.6069 26.0966 44.4 26.1793 44.1103C26.7035 42.3586 28.0414 40.8689 29.6966 40.2345C29.9862 40.1241 30.1793 39.8207 30.138 39.5034L28.6345 27.8758C28.3724 25.5172 27.5173 23.2551 26.1655 21.3379C25.5449 20.4689 24.8 19.6138 23.7931 18.6345C23.6968 18.54 23.5744 18.4765 23.4418 18.4519C23.3091 18.4273 23.1721 18.4429 23.0483 18.4965C22.7862 18.6069 22.6207 18.8551 22.6207 19.131L22.5656 43.9172C22.5656 44.0965 22.6345 44.2758 22.7724 44.4C22.8828 44.5379 23.0483 44.6069 23.2414 44.6069ZM23.9862 20.8414C24.3862 21.2965 24.7311 21.7241 25.0345 22.1517C26.268 23.8969 27.0326 25.9296 27.2552 28.0551L28.6897 39.1724C26.9916 40.0032 25.678 41.4551 25.0207 43.2276H23.9311L23.9862 20.8414Z" fill="#50AB09"/>
<path d="M45.1311 60.2345L34.938 60.1517C34.7173 60.1517 34.5104 60.262 34.3724 60.4414C34.2483 60.6207 34.2069 60.8551 34.2897 61.0758C35.6276 64.7724 38.1242 67.8069 39.5035 69.2827C39.5688 69.3527 39.6478 69.4086 39.7356 69.4467C39.8234 69.4849 39.9181 69.5046 40.0138 69.5046C40.1096 69.5046 40.2043 69.4849 40.2921 69.4467C40.3799 69.4086 40.4589 69.3527 40.5242 69.2827C41.8897 67.8069 44.3724 64.8 45.7793 61.1724C45.8198 61.0689 45.8347 60.9572 45.8227 60.8467C45.8107 60.7362 45.7721 60.6303 45.7104 60.5379C45.6404 60.4496 45.5527 60.377 45.4529 60.3247C45.3531 60.2725 45.2435 60.2417 45.1311 60.2345ZM40 67.7931C38.8 66.4138 37.0897 64.1931 35.9587 61.5448L44.0966 61.6138C42.9104 64.2207 41.2 66.4276 40 67.7931ZM56.7862 47.131L54.5242 47.0896C54.2483 47.0896 53.9311 47.2827 53.8483 47.5862C53.2138 49.7517 51.4897 51.3517 49.338 51.7931C49.1587 51.8345 48.9931 51.931 48.8966 52.0965C48.8 52.2482 48.7587 52.4414 48.8 52.6207C49.0345 53.6965 49.1173 56.4827 49.0897 56.8965C49.0621 57.0758 49.0897 57.2551 49.1862 57.4069C49.3104 57.6 49.5311 57.7103 49.7656 57.7103H56.7173C57.0897 57.7103 57.4069 57.4069 57.4069 57.0207L57.4621 47.8207C57.4621 47.4482 57.1587 47.1448 56.7862 47.131ZM56.0276 56.331H50.469C50.469 55.3655 50.3587 53.9034 50.2483 52.9793C52.4414 52.331 54.1931 50.662 55.0069 48.4689L56.0828 48.4827L56.0276 56.331ZM45.5587 52.0276H45.1449C43.1724 52.0276 41.5035 53.4896 41.2828 55.4758V55.7103C41.2828 56.0276 41.2828 56.6207 41.269 56.8414C41.2413 56.9433 41.2374 57.0502 41.2576 57.1539C41.2778 57.2575 41.3216 57.3552 41.3857 57.4392C41.4497 57.5232 41.5322 57.5913 41.6267 57.6384C41.7213 57.6854 41.8254 57.71 41.9311 57.7103H45.9449C46.3035 57.7103 46.6069 57.4345 46.6345 57.0758C46.6621 56.7448 46.6759 56.4 46.6759 56.0689C46.6759 55.0069 46.538 53.8345 46.2483 52.5655C46.2065 52.4136 46.1168 52.2792 45.9926 52.1823C45.8684 52.0854 45.7162 52.0311 45.5587 52.0276ZM45.269 56.331H42.6483V55.5724C42.7862 54.4 43.7931 53.4758 44.9931 53.4069C45.1862 54.3724 45.2828 55.2551 45.2828 56.0689C45.2828 56.1655 45.2828 56.2482 45.269 56.331ZM38.7311 57.0345V55.4896C38.5104 53.531 36.8414 52.0551 34.9518 52.0551H34.938L34.5793 52.0138C34.4146 51.9954 34.2488 52.0368 34.1121 52.1305C33.9753 52.2242 33.8768 52.3639 33.8345 52.5241C33.5129 53.688 33.3459 54.8891 33.338 56.0965V56.3586C33.338 56.5793 33.338 56.7862 33.3242 56.9793C33.3104 57.1724 33.3656 57.3655 33.4897 57.5172C33.6138 57.6689 33.8069 57.7517 34 57.7517H38.0138C38.4138 57.7103 38.7173 57.4069 38.7311 57.0345ZM37.3518 56.331H34.7311V56.0689C34.7311 55.2138 34.8414 54.331 35.0345 53.4069C36.2345 53.4896 37.2138 54.4138 37.3518 55.5172V56.331ZM30.7449 51.862C28.538 51.3655 26.8 49.7379 26.2345 47.6414C26.1932 47.4993 26.1085 47.3737 25.9923 47.2822C25.876 47.1907 25.734 47.1378 25.5862 47.131L23.3242 47.0758C23.1311 47.0896 22.9655 47.1448 22.8276 47.2689C22.6897 47.3931 22.6207 47.5724 22.6207 47.7655L22.5656 57.0345C22.5656 57.2138 22.6345 57.3931 22.7724 57.531C22.9104 57.6689 23.0759 57.7379 23.2552 57.7379H30.2069C30.5793 57.7379 30.8828 57.4345 30.8966 57.062C30.9242 55.9448 31.0345 53.6138 31.269 52.731C31.3242 52.5517 31.2966 52.3586 31.2 52.1931C31.0964 52.0285 30.9334 51.9099 30.7449 51.862ZM29.5173 56.331H23.9311L23.9862 48.4689L25.0483 48.4965C25.8069 50.6483 27.5587 52.3172 29.7793 53.0345C29.6276 54.0551 29.5587 55.4896 29.5173 56.331ZM35.8207 49.5862C37.2276 49.7931 38.5242 50.4689 39.5035 51.4896C39.6276 51.6276 39.8069 51.6965 40 51.6965C40.1931 51.6965 40.3724 51.6138 40.4966 51.4896C41.4759 50.4689 42.8 49.8069 44.1104 49.6689C44.3449 49.6414 44.538 49.5172 44.6483 49.3103C44.7587 49.1034 44.7587 48.8689 44.6483 48.662C43.3793 46.2207 41.7931 44.2758 40.5656 42.8414C40.5029 42.7673 40.4247 42.7078 40.3365 42.6673C40.2483 42.6268 40.1523 42.6062 40.0552 42.6069C39.8483 42.6345 39.669 42.6896 39.5311 42.8276C38.5931 43.8345 36.7862 45.931 35.3104 48.5655C35.2 48.7586 35.2 49.0069 35.2966 49.2C35.3931 49.3931 35.6 49.5586 35.8207 49.5862ZM40.0276 44.3448C40.9656 45.462 42.0276 46.8551 42.9656 48.4827C41.8897 48.7586 40.869 49.2965 40 50.0689C39.1288 49.3131 38.1024 48.7576 36.9931 48.4414C38.0552 46.7172 39.2 45.2827 40.0276 44.3448ZM57.1035 18.5517C56.9854 18.4951 56.8534 18.4741 56.7236 18.4912C56.5938 18.5084 56.4718 18.5629 56.3724 18.6482C55.4207 19.4345 54.5656 20.3448 53.8483 21.3517C52.4966 23.2689 51.6414 25.5172 51.3793 27.8758L49.8345 39.4482C49.7931 39.7517 49.9724 40.0551 50.2621 40.1793C51.9724 40.8827 53.3242 42.3862 53.7793 44.0965C53.8621 44.4 54.138 44.6069 54.4414 44.6069H56.7035C57.0897 44.6069 57.3931 44.3034 57.3931 43.9172L57.4897 19.1724C57.4928 19.0425 57.4579 18.9146 57.3893 18.8043C57.3207 18.6941 57.2214 18.6062 57.1035 18.5517ZM56.0276 43.2276H54.9518C54.3311 41.462 52.9931 39.9724 51.269 39.1172L52.7449 28.0414C52.9793 25.9034 53.7518 23.8758 54.9655 22.1517C55.3104 21.6689 55.6966 21.2 56.1104 20.7724L56.0276 43.2276ZM23.2414 44.6069H25.5173C25.8207 44.6069 26.0966 44.4 26.1793 44.1103C26.7035 42.3586 28.0414 40.8689 29.6966 40.2345C29.9862 40.1241 30.1793 39.8207 30.138 39.5034L28.6345 27.8758C28.3724 25.5172 27.5173 23.2551 26.1655 21.3379C25.5449 20.4689 24.8 19.6138 23.7931 18.6345C23.6968 18.54 23.5744 18.4765 23.4418 18.4519C23.3091 18.4273 23.1721 18.4429 23.0483 18.4965C22.7862 18.6069 22.6207 18.8551 22.6207 19.131L22.5656 43.9172C22.5656 44.0965 22.6345 44.2758 22.7724 44.4C22.8828 44.5379 23.0483 44.6069 23.2414 44.6069ZM23.9862 20.8414C24.3862 21.2965 24.7311 21.7241 25.0345 22.1517C26.268 23.8969 27.0326 25.9296 27.2552 28.0551L28.6897 39.1724C26.9916 40.0032 25.678 41.4551 25.0207 43.2276H23.9311L23.9862 20.8414Z" stroke="#50AB09" stroke-width="0.4" mask="url(#path-2-outside-1_25_2120)"/>
</svg>
